{"title":"Two And A Half Men Dva ipo muskarca serijal 7+prevod","uid":7115448,"size":3983031360,"categoryP":"video","categoryS":"tv_shows","magnet":"?xt=urn:btih:0a8328a25381c0270d7ef362beef347d213eb4bc&amp;dn=Two+And+A+Half+Men+Dva+ipo+muskarca+serijal+7%2Bprevod&amp;tr=udp%3A%2F%2Ftracker.openbittorrent.com%3A80&amp;tr=udp%3A%2F%2Fopen.demonii.com%3A1337&amp;tr=udp%3A%2F%2Ftracker.coppersurfer.tk%3A6969&amp;tr=udp%3A%2F%2Fexodus.desync.com%3A6969","seeders":0,"leechers":1,"uploader":"homerruma","files":-1,"time":1332200579,"description":"Two And A Half Men Dva ipo muskarca serijal 7+prevod\n\nDVDrip\n\nUKLJUCUJE PREVOD\n\n\nGeneral\nComplete name                    : Two.And.A.Half.Men.S07E01.DVDRip.XviD-CLUE.avi\nFormat                           : AVI\nFormat/Info                      : Audio Video Interleave\nFile size                        : 173 MiB\nDuration                         : 22mn 2s\nOverall bit rate                 : 1 100 Kbps\nWriting application              : VirtualDubMod 1.5.10.2 (build 2540/release)\nWriting library                  : VirtualDubMod build 2540/release\n\nVideo\nID                               : 0\nFormat                           : MPEG-4 Visual\nFormat profile                   : Advanced Simple@L5\nFormat settings, BVOP            : Yes\nFormat settings, QPel            : No\nFormat settings, GMC             : No warppoints\nFormat settings, Matrix          : Default (H.263)\nCodec ID                         : XVID\nCodec ID/Hint                    : XviD\nDuration                         : 22mn 2s\nBit rate                         : 971 Kbps\nWidth                            : 624 pixels\nHeight                           : 352 pixels\nDisplay aspect ratio             : 16:9\nFrame rate                       : 23.976 fps\nColor space                      : YUV\nChroma subsampling               : 4:2:0\nBit depth                        : 8 bits\nScan type                        : Progressive\nCompression mode                 : Lossy\nBits/(Pixel*Frame)               : 0.184\nStream size                      : 153 MiB (88%)\nWriting library                  : XviD 1.2.1 (UTC 2008-12-04)\n\nAudio\nID                               : 1\nFormat                           : MPEG Audio\nFormat version                   : Version 1\nFormat profile                   : Layer 3\nMode                             : Joint stereo\nMode extension                   : MS Stereo\nCodec ID                         : 55\nCodec ID/Hint                    : MP3\nDuration                         : 22mn 2s\nBit rate mode                    : Variable\nBit rate                         : 116 Kbps\nNominal bit rate                 : 128 Kbps\nChannel(s)                       : 2 channels\nSampling rate                    : 48.0 KHz\nCompression mode                 : Lossy\nStream size                      : 18.4 MiB (11%)\nAlignment                        : Aligned on interleaves\nInterleave, duration             : 24 ms (0.58 video frame)\nInterleave, preload duration     : 158 ms\nWriting library                  : LAME3.92 \nEncoding settings                : -m j -V 0 -q 2 -lowpass 15.3 --abr 128\n","torrent":{"xt":"urn:btih:0a8328a25381c0270d7ef362beef347d213eb4bc","amp;dn":"Two+And+A+Half+Men+Dva+ipo+muskarca+serijal+7%2Bprevod","amp;tr":["udp%3A%2F%2Ftracker.openbittorrent.com%3A80","udp%3A%2F%2Fopen.demonii.com%3A1337","udp%3A%2F%2Ftracker.coppersurfer.tk%3A6969","udp%3A%2F%2Fexodus.desync.com%3A6969"],"infoHash":"0a8328a25381c0270d7ef362beef347d213eb4bc","infoHashBuffer":{"type":"Buffer","data":[10,131,40,162,83,129,192,39,13,126,243,98,190,239,52,125,33,62,180,188]},"announce":[],"urlList":[]}}